<svg xmlns="http://www.w3.org/2000/svg" width="1200" height="1600" viewBox="0 0 1200 1600">
  <defs>
    <linearGradient id="bg" x1="0" y1="0" x2="1" y2="1">
      <stop offset="0%" stop-color="#3E1228"/>
      <stop offset="55%" stop-color="#70234B"/>
      <stop offset="100%" stop-color="#F3E6D2"/>
    </linearGradient>
    <radialGradient id="glow" cx="80%" cy="15%" r="50%">
      <stop offset="0%" stop-color="#ffffff66"/>
      <stop offset="100%" stop-color="#ffffff00"/>
    </radialGradient>
    <linearGradient id="fabric" x1="0" y1="0" x2="0.9" y2="1">
      <stop offset="0%" stop-color="#ffffff22"/>
      <stop offset="100%" stop-color="#0000001a"/>
    </linearGradient>
    <pattern id="motif" width="36" height="36" patternUnits="userSpaceOnUse">
      <circle cx="18" cy="18" r="2.4" fill="#C9A45F" opacity="0.65"/>
    </pattern>
  </defs>
  <rect width="1200" height="1600" fill="url(#bg)"/>
  <rect width="1200" height="1600" fill="url(#glow)"/>
  <path d="M0 260 C 250 140, 540 380, 1200 220 L1200 1600 L0 1600 Z" fill="#ffffff1f"/>
  <path d="M0 496 C 320 376, 760 636, 1200 466 L1200 1600 L0 1600 Z" fill="#00000018"/>
  <path d="M0 772 C 420 672, 760 872, 1200 742 L1200 1600 L0 1600 Z" fill="#ffffff14"/>

  <g transform="translate(630,260)">
    <ellipse cx="0" cy="70" rx="95" ry="115" fill="#f2d0b6"/>
    <ellipse cx="0" cy="290" rx="145" ry="170" fill="#f0d2bc"/>
    <path d="M-190 230 C -60 120, 90 120, 220 250 C 170 430, 115 560, 70 840 C -20 870, -110 810, -175 640 C -220 510, -250 360, -190 230 Z" fill="#70234B"/>
    <path d="M-178 260 C -60 190, 110 240, 220 370 C 195 500, 140 670, 98 860 C 30 890, -58 840, -122 700 C -180 575, -208 430, -178 260 Z" fill="url(#fabric)"/>
    <path d="M175 340 C 120 280, 48 270, -18 320 C -88 370, -122 460, -108 560 C -25 540, 58 552, 150 620 C 206 663, 236 730, 250 812 C 310 760, 346 690, 352 615 C 360 505, 294 408, 175 340 Z" fill="#3E1228"/>
    <path d="M160 355 C 85 305, 8 325, -56 386 C -102 430, -126 490, -122 545 C -70 532, 6 540, 88 592 C 178 647, 248 727, 280 824 C 322 778, 344 713, 340 642 C 334 530, 265 430, 160 355 Z" fill="url(#motif)" opacity="0.26"/>
    <rect x="-220" y="824" width="570" height="18" rx="9" fill="#C9A45F" opacity="0.78"/>
  </g>

  <g>
    <rect x="56" y="64" width="1088" height="1472" rx="24" ry="24" fill="none" stroke="#C9A45F" stroke-width="3" opacity="0.64"/>
    <rect x="72" y="80" width="1056" height="1440" rx="18" ry="18" fill="none" stroke="#ffffff33" stroke-width="2"/>
  </g>

  <text x="96" y="1458" font-family="Playfair Display, Georgia, serif" font-size="52" fill="#fff8ef" opacity="0.96">Banarasi</text>
  <text x="96" y="1510" font-family="Inter, Arial, sans-serif" font-size="20" fill="#fff2df" opacity="0.84">Label Saumya • Editorial Saree Series</text>
</svg>